<mxfile host="app.diagrams.net" modified="2023-11-28T06:20:03.950Z" agent="Mozilla/5.0 (Windows NT 10.0; Win64; x64) AppleWebKit/537.36 (KHTML, like Gecko) Chrome/119.0.0.0 Safari/537.36" etag="JQ7a8xOrIJN5laCc-jw_" version="22.1.4" type="device">
  <diagram name="페이지-1" id="W-AUWrDXs9lIPLHtlgtr">
    <mxGraphModel dx="1687" dy="941" grid="1" gridSize="10" guides="1" tooltips="1" connect="1" arrows="1" fold="1" page="1" pageScale="1" pageWidth="827" pageHeight="1169" math="0" shadow="0">
      <root>
        <mxCell id="0" />
        <mxCell id="1" parent="0" />
        <mxCell id="1WTBzV1dJ3ijmPRsGMLZ-1" value="CNN&amp;nbsp;" style="rounded=0;whiteSpace=wrap;html=1;fontSize=19;fontStyle=1" parent="1" vertex="1">
          <mxGeometry x="180" y="240" width="300" height="30" as="geometry" />
        </mxCell>
        <mxCell id="1WTBzV1dJ3ijmPRsGMLZ-4" value="train : young(13620장) / old(6220장)&lt;br style=&quot;font-size: 15px;&quot;&gt;test : young(3600장) / old(1350장)&lt;br style=&quot;font-size: 15px;&quot;&gt;validation : young(1320장) / old(200장)&lt;br style=&quot;font-size: 15px;&quot;&gt;dropout: 3720 장" style="rounded=0;whiteSpace=wrap;html=1;fontSize=15;fontStyle=1" parent="1" vertex="1">
          <mxGeometry x="190" y="100" width="300" height="120" as="geometry" />
        </mxCell>
        <mxCell id="1WTBzV1dJ3ijmPRsGMLZ-5" value="&lt;b style=&quot;&quot;&gt;&lt;font style=&quot;font-size: 19px;&quot;&gt;Conv2D&lt;/font&gt;&lt;/b&gt;&lt;br style=&quot;font-size: 17px;&quot;&gt;filters = 32 ,64 ,128&lt;br style=&quot;font-size: 17px;&quot;&gt;kernal_size = (3 , 3)&lt;br style=&quot;font-size: 17px;&quot;&gt;input_shape = (224, 224, 3)&lt;br style=&quot;font-size: 17px;&quot;&gt;padding = &quot;same&quot;&lt;br style=&quot;font-size: 17px;&quot;&gt;activation = &quot;relu&quot;&lt;br style=&quot;font-size: 17px;&quot;&gt;&lt;br style=&quot;font-size: 17px;&quot;&gt;&lt;b style=&quot;&quot;&gt;&lt;font style=&quot;font-size: 19px;&quot;&gt;MaxPooling2D&lt;/font&gt;&lt;/b&gt;&lt;br style=&quot;font-size: 17px;&quot;&gt;pool_size = (2, 2)&lt;br style=&quot;font-size: 17px;&quot;&gt;&lt;br style=&quot;font-size: 17px;&quot;&gt;&lt;b style=&quot;&quot;&gt;&lt;font style=&quot;font-size: 19px;&quot;&gt;중간층&amp;nbsp;&lt;/font&gt;&lt;/b&gt;&lt;br style=&quot;font-size: 17px;&quot;&gt;512&amp;nbsp;&lt;br style=&quot;font-size: 17px;&quot;&gt;activation = &quot;relu&quot;&lt;br style=&quot;font-size: 17px;&quot;&gt;&lt;br style=&quot;font-size: 17px;&quot;&gt;&lt;b style=&quot;&quot;&gt;&lt;font style=&quot;font-size: 19px;&quot;&gt;출력층&lt;/font&gt;&lt;/b&gt;&lt;br style=&quot;font-size: 17px;&quot;&gt;activation = &quot;Sigmoid&quot;" style="rounded=0;whiteSpace=wrap;html=1;fontSize=17;" parent="1" vertex="1">
          <mxGeometry x="180" y="290" width="300" height="360" as="geometry" />
        </mxCell>
        <mxCell id="1WTBzV1dJ3ijmPRsGMLZ-11" value="&lt;font style=&quot;font-size: 17px;&quot;&gt;&lt;b style=&quot;font-size: 17px;&quot;&gt;VGG16&amp;nbsp;&lt;br style=&quot;font-size: 17px;&quot;&gt;include_top = False&lt;br style=&quot;font-size: 17px;&quot;&gt;weights = &quot;imagenet&quot;&lt;br style=&quot;font-size: 17px;&quot;&gt;input_shape = (224, 224, 3)&lt;br style=&quot;font-size: 17px;&quot;&gt;vgg16.trainable = False&lt;br style=&quot;font-size: 17px;&quot;&gt;&lt;br style=&quot;font-size: 17px;&quot;&gt;&lt;/b&gt;&lt;b style=&quot;border-color: var(--border-color); font-size: 17px;&quot;&gt;분류층&lt;/b&gt;&lt;/font&gt;&lt;b style=&quot;font-size: 17px;&quot;&gt;&lt;font style=&quot;font-size: 17px;&quot;&gt;&lt;br style=&quot;font-size: 17px;&quot;&gt;Flatten()&lt;br style=&quot;font-size: 17px;&quot;&gt;Dense(64, activation = &quot;relu&quot;)&lt;br style=&quot;font-size: 17px;&quot;&gt;출력층&amp;nbsp;&lt;br style=&quot;font-size: 17px;&quot;&gt;Dense(1, activation = &quot;sigmoid&quot;)&lt;/font&gt;&lt;br style=&quot;font-size: 17px;&quot;&gt;&lt;/b&gt;" style="rounded=0;whiteSpace=wrap;html=1;fontSize=17;" parent="1" vertex="1">
          <mxGeometry x="500" y="290" width="300" height="360" as="geometry" />
        </mxCell>
        <mxCell id="1WTBzV1dJ3ijmPRsGMLZ-12" value="&lt;div style=&quot;&quot;&gt;&lt;b&gt;ResNet-50:&lt;/b&gt;&lt;/div&gt;&lt;div style=&quot;&quot;&gt;&lt;b&gt;&lt;br&gt;&lt;/b&gt;&lt;/div&gt;&lt;div style=&quot;&quot;&gt;&lt;b&gt;깊이: 50 계층&lt;/b&gt;&lt;/div&gt;&lt;div style=&quot;&quot;&gt;&lt;b&gt;일반적인 이미지 분류 작업에 적합하며, 상대적으로 균형 잡힌 속도와 정확도를 제공합니다.&lt;/b&gt;&lt;/div&gt;&lt;div style=&quot;&quot;&gt;&lt;b&gt;중간 크기의 데이터셋과 일반적인 컴퓨팅 자원에서 잘 작동합니다.&lt;/b&gt;&lt;/div&gt;&lt;div style=&quot;&quot;&gt;&lt;b&gt;ResNet-101:&lt;/b&gt;&lt;/div&gt;&lt;div style=&quot;&quot;&gt;&lt;b&gt;&lt;br&gt;&lt;/b&gt;&lt;/div&gt;&lt;div style=&quot;&quot;&gt;&lt;b&gt;깊이: 101 계층&lt;/b&gt;&lt;/div&gt;&lt;div style=&quot;&quot;&gt;&lt;b&gt;더 복잡한 이미지 분류 또는 객체 탐지 작업에 적합합니다.&lt;/b&gt;&lt;/div&gt;&lt;div style=&quot;&quot;&gt;&lt;b&gt;더 깊은 계층으로 인해 높은 정확도를 달성할 수 있지만, 계산 비용도 증가합니다.&lt;/b&gt;&lt;/div&gt;" style="rounded=0;whiteSpace=wrap;html=1;fontSize=15;" parent="1" vertex="1">
          <mxGeometry x="827" y="290" width="300" height="360" as="geometry" />
        </mxCell>
        <mxCell id="1WTBzV1dJ3ijmPRsGMLZ-13" value="Accuracy 약 0.9 초반대로 과적합" style="rounded=0;whiteSpace=wrap;html=1;fontSize=15;" parent="1" vertex="1">
          <mxGeometry x="180" y="690" width="300" height="60" as="geometry" />
        </mxCell>
        <mxCell id="1WTBzV1dJ3ijmPRsGMLZ-14" value="전처리에 관한 것들 적기&lt;br&gt;generator&lt;br&gt;" style="rounded=0;whiteSpace=wrap;html=1;fontSize=15;fontStyle=1" parent="1" vertex="1">
          <mxGeometry x="590" y="50" width="300" height="120" as="geometry" />
        </mxCell>
        <mxCell id="1WTBzV1dJ3ijmPRsGMLZ-15" value="ResNet" style="rounded=0;whiteSpace=wrap;html=1;fontSize=19;fontStyle=1" parent="1" vertex="1">
          <mxGeometry x="827" y="240" width="300" height="30" as="geometry" />
        </mxCell>
        <mxCell id="1WTBzV1dJ3ijmPRsGMLZ-16" value="전이학습" style="rounded=0;whiteSpace=wrap;html=1;fontSize=19;fontStyle=1" parent="1" vertex="1">
          <mxGeometry x="500" y="240" width="300" height="30" as="geometry" />
        </mxCell>
        <mxCell id="1WTBzV1dJ3ijmPRsGMLZ-17" value="Accuracy 약 0.7 초반대로 아쉬운 성능" style="rounded=0;whiteSpace=wrap;html=1;fontSize=15;" parent="1" vertex="1">
          <mxGeometry x="500" y="690" width="300" height="60" as="geometry" />
        </mxCell>
        <mxCell id="1WTBzV1dJ3ijmPRsGMLZ-18" value="deepface 와 실효성 비교&lt;br&gt;" style="rounded=0;whiteSpace=wrap;html=1;fontSize=15;" parent="1" vertex="1">
          <mxGeometry x="820" y="690" width="300" height="60" as="geometry" />
        </mxCell>
      </root>
    </mxGraphModel>
  </diagram>
</mxfile>
